<svg width="16" height="16" viewBox="0 0 16 16" fill="none" xmlns="http://www.w3.org/2000/svg" class="s-ion-icon">
<path d="M3.94658 2.25685L3.11654 1.38356L3.94658 0.5L4.77662 1.38356L3.94658 2.25685ZM4.54225 7.06507C4.08654 7.18836 3.6699 7.21918 3.29231 7.15754C2.91472 7.09589 2.57945 6.97603 2.2865 6.79795C2.00005 6.61986 1.76243 6.36986 1.57364 6.04795C1.39136 5.73288 1.26116 5.37329 1.18304 4.96918C1.11142 4.57192 1.0984 4.12329 1.14397 3.62329C1.19606 3.11644 1.31324 2.58904 1.49552 2.0411L2.5111 2.4726C2.10747 3.69178 2.07167 4.61301 2.40368 5.2363C2.7357 5.85959 3.36718 6.05822 4.29812 5.83219C4.45437 5.7911 4.57155 5.76027 4.64967 5.73973C4.72779 5.72603 4.8287 5.70206 4.95239 5.66781C5.07608 5.63356 5.16722 5.60274 5.22581 5.57534C5.2844 5.5548 5.35602 5.52397 5.44065 5.48288C5.53179 5.44863 5.59689 5.41096 5.63595 5.36986C5.67501 5.33562 5.72058 5.2911 5.77266 5.2363C5.82474 5.18836 5.86055 5.13699 5.88008 5.08219C5.89961 5.0274 5.91914 4.96233 5.93867 4.88699C5.9582 4.81849 5.96471 4.73973 5.9582 4.65069C5.9582 4.56849 5.95169 4.47603 5.93867 4.37329L5.54806 1.55822L6.6027 1.37329C6.82405 2.92808 6.95425 3.86986 6.99331 4.19863C7.0519 4.64384 7.03888 5.0274 6.95425 5.34932C6.86962 5.67808 6.71012 5.94863 6.47576 6.16096C6.2479 6.38014 5.98099 6.55822 5.67501 6.69521C5.37555 6.83219 4.99796 6.95548 4.54225 7.06507Z" fill="#191919"></path>
<path d="M2.06045 12.8596C1.38991 12.8596 0.91467 12.6952 0.634736 12.3664C0.361311 12.0308 0.208324 11.4521 0.175773 10.6301L0 5.90411L1.07417 5.84247L1.24994 10.6301C1.26296 11.0616 1.31179 11.3322 1.39642 11.4418C1.48105 11.5445 1.70239 11.5959 2.06045 11.5959H2.1581V12.8596H2.06045Z" fill="#191919"></path>
<path d="M5.81317 8.94521C6.28841 9.21918 6.58137 9.67466 6.69204 10.3116C6.80271 10.9418 6.7018 11.5685 6.38932 12.1918C6.22657 12.5069 5.9922 12.7226 5.68623 12.839C5.38025 12.9555 5.06451 12.9315 4.73901 12.7671L3.59648 12.1404C3.21238 12.6199 2.73715 12.8596 2.17077 12.8596H2.06335V11.5959H2.17077C2.55486 11.5959 2.82503 11.4418 2.98128 11.1336L3.7039 9.67466C3.91222 9.24315 4.2182 8.95891 4.62182 8.82192C5.02545 8.67808 5.42257 8.71918 5.81317 8.94521ZM5.53975 11.6781C5.71552 11.3425 5.7969 11.0171 5.78388 10.7021C5.77737 10.387 5.66018 10.1644 5.43233 10.0342C5.25656 9.93836 5.08079 9.93151 4.90501 10.0137C4.73575 10.0959 4.59253 10.2534 4.47535 10.4863L4.16286 11.113L5.33468 11.7397C5.42582 11.7877 5.49418 11.7671 5.53975 11.6781Z" fill="#191919"></path>
<path d="M12.2625 11.5959V12.8596H11.8035C11.8165 13.1952 11.784 13.4829 11.7058 13.7226C11.6277 13.9692 11.5105 14.1781 11.3543 14.3493C11.2046 14.5274 10.98 14.6849 10.6805 14.8219C10.3875 14.9589 10.0751 15.0753 9.74304 15.1712C9.41103 15.274 8.9781 15.3836 8.44427 15.5L8.22944 14.2671C9.35569 14.0137 10.0588 13.8151 10.3387 13.6712C10.6187 13.5274 10.7456 13.2569 10.7196 12.8596H9.59657C9.08227 12.8596 8.66562 12.6986 8.34662 12.3767C8.02763 12.0479 7.84535 11.6062 7.79977 11.0514C7.7542 10.4418 7.90068 9.89726 8.23921 9.41781C8.57773 8.93151 9.02042 8.67466 9.56727 8.64726C10.1206 8.61986 10.5828 8.82192 10.9539 9.25343C11.325 9.67808 11.5463 10.2397 11.618 10.9384L11.6863 11.5959H12.2625ZM8.87394 10.9589C8.89998 11.3836 9.14086 11.5959 9.59657 11.5959H10.5926L10.5438 11.0719C10.5112 10.6884 10.4136 10.3973 10.2508 10.1986C10.0881 9.99315 9.87976 9.89726 9.62586 9.91096C9.37848 9.91781 9.18643 10.024 9.04972 10.2295C8.91301 10.4349 8.85441 10.6781 8.87394 10.9589Z" fill="#191919"></path>
<path d="M13.3927 7.97945L12.6603 7.20891L13.3927 6.42808L14.1349 7.20891L13.3927 7.97945ZM15.2578 7.97945L14.5255 7.20891L15.2578 6.42808L16 7.20891L15.2578 7.97945ZM12.1623 12.8596V11.5959H13.6271C13.9916 11.5959 14.2488 11.5171 14.3985 11.3596C14.5482 11.2021 14.571 10.9281 14.4669 10.5377L14.086 9.00685L15.1114 8.68836L15.5117 10.2808C15.707 11.0479 15.6159 11.6712 15.2383 12.1507C14.8607 12.6233 14.3236 12.8596 13.6271 12.8596H12.1623Z" fill="#191919"></path>
</svg>